<mxfile host="app.diagrams.net" modified="2023-07-30T18:13:57.707Z" agent="Mozilla/5.0 (Windows NT 10.0; Win64; x64) AppleWebKit/537.36 (KHTML, like Gecko) Chrome/115.0.0.0 Safari/537.36 Edg/115.0.1901.188" etag="OGlFQFvwx1vK36vr89pe" version="21.6.6" type="device">
  <diagram name="Page-1" id="gJStHNvF4xc2UW6lDUox">
    <mxGraphModel dx="1266" dy="746" grid="1" gridSize="10" guides="1" tooltips="1" connect="1" arrows="1" fold="1" page="1" pageScale="1" pageWidth="850" pageHeight="1100" math="0" shadow="0">
      <root>
        <mxCell id="0" />
        <mxCell id="1" parent="0" />
        <mxCell id="kdg9Tal-rUXp1V4zLP7M-1" value="" style="shape=image;verticalLabelPosition=bottom;labelBackgroundColor=default;verticalAlign=top;aspect=fixed;imageAspect=0;image=data:image/png,iVBORw0KGgoAAAANSUhEUgAAAh0AAAITCAYAAACjaq6XAAAAAXNSR0IArs4c6QAAIABJREFUeF7tvX+sVtWV/7+44u2FcivMpWGEhlCnLfTzh7TG2iZgnI806jQmtN5EP6kyas1E8UdBqm1HUatia9VBqCj6mTjioE01ubYmpoqpdojwR62xxT++lU7HElN1mHID/VwKt1e8fLOecq77Hp8fez3nPOc5++zXk7TIZe2913qtffd+P/vHOVM++clP/v4///M/FwgfCEAAAp4EPvGJTxz53e9+N9XTHDMIQAAC8slPfnLPFBE5evToUXBAAAIQ8CYwZcoUHTi87TGEAAQgoOMGooN+AAEImAkgOszIKACB6AkgOqLvAgCAQHsEEB3tcaMUBGImgOiIOfvEDoEMBBAdGeBRFAKREkB0RJp4woZAVgKIjqwEKQ+B+AggOuLLORFDIBcCiI5cMFIJBKIigOioSLp3794tF1xwgVx//fVy4YUX1qKq97NOh7tz505ZunSp7NixQ5YsWdLp5qi/iwQQHV2En0PTw8PDtbFi27Ztpf19ZTzJIdElqwLRUbKEtOtOWURHu/5TLjwCiI7wcuZ6nEzo+rPbbrtNbrrpptIFhOgoXUoyO4ToyIywHBX4iI7EZteuXTWnk9WIdNn0L3q63GOPPVb7hpT8/KyzzpLnn39evvCFL8j5558vy5Ytm6jb/TalbSZly0ENL7IQQHRkodf9srfffrvo7/qCBQtkz5498vjjj8vAwEDNsWQMUDFy8803136WCJP0772OJ5dffrnce++9Mm3atInAkt99XfFUQePW6f5dxyH96Aqpfs4+++wJX5r50X2CeNAOAURHO9RKWKaV6DjvvPPk2muvrXmug8M999xTGwR0oNm3b9+krRlXdJxyyim1citWrKhtl+hANTQ0JE888UStLt3SUbGRDDhu2UWLFtXESXrQYeulhB2oDZcQHW1AK0kRVxCceeaZH9gSTQsEHScuuuii2peJ2bNnT/q9f/XVV2vl632hSISNln/uuedqdSQC5amnnpKtW7fKrbfeWvuZbg2nx6mk7kTwuH6wfVuSzmR0A9FhBFZWc1/R8dBDD33gW0mrlQ6N2V3tWLx48STR4Z4jcUVH8u0lERmHDx+eJHzcb0Vl5YpfjQkgOsLtHc2+HLgrHcnvritSdDXTPT/W7Pda27nqqqtq48WTTz5ZWzXR8WPLli3y4IMPyrx58+Skk06Su+++u2azcOHC2hchFSP65+uvvz5JEKVXT8LNQLyeIzoqkvtWokNXHNw9XA07+cbx5ptvNlzpSFYr/vu//7s2KLzyyisTA0Sy0tFIdOiSrTuYIDoq0tmOhYHoCDef7gqEbqmk/57eYm1XdCTj0sUXX1w7sKpbJ/qnrmg88MADtdWNN954Y2ILJyGafLHRVVj3YDqiI9w+l3iO6Ag/h7UIkl9G3QZpdXvFPWehS6KnnnpqQ9GRXq3Qbx+JkGglOljpqEjnahAGoiPM/KbPaLlRJFskeYmO5IvG73//+1oz3//+92srHLrimggL94uMrnS4n2Z+lPHga5g9olivER3F8u5Ya8kvt3sgzBUIug/b6HxF+uyFfuvRZVB3/1a/kZxzzjm1OpJVj1aigzMdHUt3KSpGdJQiDWYn6p2LSL6I6KFSPZ+VnKVwz1+kz3T87d/+7aQtkEaHxJP2kgOi6bMd7kprozMd9fzgTIc59aUogOgoRRrycSJ9U0RrdQ9tpr/huNfkkoFByyQn1pOyiQhJRIZus6QFSbK60uibiS6ppv3JJ2pq6RYBREe3yLffbr0vJ0lt7iHxZFtDVyR0G0RvqKRvrSVbJvq73ezKbTLuDA4O1r3Fou27W7+tbq9wA679/JehJKKjDFnABwgESADREWDSPF1u9nyMbjx00NNtzAIggOgIIEm4CIEyEkB0lDEr+fiE6MiHI7V8kACig14BAQi0RQDR0RY2CkEgagKIjqjTT/AQaJ8AoqN9dpSEQKwEEB2xZp64IZCRAKIjI0CKQyBCAoiOCJNOyBDIgwCiIw+K1AGBuAggOuLKN9FCIDcCiI7cUFIRBKIhUBMdM2fO3H/gwIGZ0URNoBCAQGYCM2fOPHrgwIEpmSuiAghAIBoCs2bNqg0aR0WEwSOatBMoBHIhwLiRC0YqgUBUBI4iOqLKN8FCIDcCiI7cUFIRBKIhgOiIJtUECoF8CSA68uVJbRCIgQCiI4YsEyMEOkAA0dEBqFQJgYoTQHRUPMGEB4FOEUB0dIos9UKgugQQHdXNLZFBoKMEEB0dxUvlEKgkAURHJdNKUBDoPAFER+cZ0wIEqkYA0VG1jBIPBAoigOgoCDTNQKBCBBAdFUomoUCgSAKIjiJp0xYEqkEA0VGNPBIFBAongOgoHDkNQiB4AoiO4FNIABDoDgFER3e40yoEQiaA6Ag5e/gOgS4SQHR0ET5NQyBQAoiOQBOH2xDoNgFER7czQPsQCI8AoiO8nOExBEpBANFRijTgBASCIoDoCCpdOAuB8hBAdJQnF3gCgVAIIDpCyRR+QqBkBBAdJUsI7kAgAAKIjgCShIsQKCMBREcZs4JPECg3AURHufODdxAoLQFER2lTg2MQKC0BREdpU4NjECg3AURHufODdxAoIwFERxmzgk8QCIAAoiOAJOEiBEpGANFRsoTgDgRCIYDoCCVT+AmB8hBAdJQnF3gCgaAIIDqCShfOQqAUBBAdpUgDTkAgPAKIjvByhscQ6DYBREe3M0D7EAiUAKIj0MThNgS6SADR0UX4NA2BkAkgOkLOHr5DoDsEEB3d4U6rEAieAKIj+BQSAAQKJ4DoKBx5uRtcIiJfFZGzReRjIvIhEfmLiPxBRLaJyA9FZGe5Q8C7ggggOgoCTTMQqBABREeFkpkllMUisklE9M/+JhWNiMguEbn62J9Z2qRs2AQQHWHnD+8h0A0CiI5uUC9Zm/8oIo+24dPFIvLvbZSjSDUIIDqqkUeigECRBBAdRdIuYVsqODaLyPQ2fDskIisRHm2Qq0YRREc18kgUECiSAKKjSNola0u3Un6dg0+fYaslB4rhVYHoCC9neAyBbhNAdHQ7A11s/yURWZpD+ztE5PQc6qGKsAggOsLKF95CoAwEEB1lyEIXfNBbKs+2ODTq65YeLv0HbrX44qqMHaKjMqkkEAgURgDRURjqcjV0v4hcmaNLD4jIVTnWR1XlJ4DoKH+O8BACZSOA6ChbRgry53ci8nc5tvVfIvKJHOujqvITQHSUP0d4CIGyEUB0lC0jBfkzeuzBX3k1pw8Q68urMuoJggCiI4g04SQESkUA0VGqdBTnjE4YeX+m5F0h9ZWaAKKj1OnBOQiUkgCio5Rp6bxTrHR0nnHVW0B0VD3DxAeB/AkgOvJnGkSNnOkIIk2ldhLRUer04BwESkkA0VHKtHTeKW6vdJ5x1VtAdFQ9w8QHgfwJIDryZxpEjTynI4g0ldpJREep04NzECglAURHKdNSjFM8kbQYzlVtBdFR1cwSFwQ6RwDR0Tm2pa+Zd6+UPkWldhDRUer04BwESkkA0VHKtBTnFG+ZLY511VpCdFQto8QDgc4TQHR0nnHpW1Dh8WgbXl7Ma+3boFadIoiO6uSSSCBQFAFER1GkS96ObrVsEhH9s7+Jr/pyt10icjWvsy95RjvvHqKj84xpAQJVI4DoqFpGM8ajt1q+KiJni8jHjj0qXR9x/gcR2SYiP+RtshkJV6c4oqM6uSQSCBRFANFRFOlA22FiCTRxBbhN3ygAMk1AoGIEEB0VS2je4TCx5E20OvXRN6qTSyKBQFEEEB1FkQ60HSaWQBNXgNv0jQIg0wQEKkYA0VGxhOYdDhNL3kSrUx99ozq5JBIIFEUA0VEU6UDbYWIJNHEFuE3fKAAyTUCgYgQQHRVLaN7hMLHkTbQ69dE3qpNLIoFAUQQQHUWRDrQdJpZAE1eA2/SNAiDTBAQqRgDRUbGE5h0OE0veRKtTH32jOrkkEggURQDRURTpQNthYgk0cQW4Td8oADJNQKBiBBAdFUto3uEwseRNtDr10Teqk0sigUBRBBAdRZEOtB0mlkATV4Db9I0CINMEBCpGANFRsYTmHQ4TS95Eq1MffaM6uSQSCBRFANFRFOlA22FiCTRxBbhN3ygAMk1AoGIEEB0VS2je4TCx5E20OvXRN6qTSyKBQFEEEB1FkQ60HSaWQBNXgNv0jQIg0wQEKkYA0VGxhOYdDhNL3kSrUx99ozq5JBIIFEUA0VEU6UDbYWIJNHEFuE3fKAAyTUCgYgQQHRVLaN7hMLHkTbQ69dE3qpNLIoFAUQQQHUWRDrQdJpZAE1eA2/SNAiDTBAQqRgDRUbGE5h0OE0veRKtTH32jOrkkEggURQDRURTpQNthYgk0cQW4Td8oADJNQKBiBBAdFUto3uEwseRNtDr10Teqk0sigUBRBBAdRZEOtB0mlkATV4Db9I0CINMEBCpGANFRsYTmHQ4TS95Eq1MffaM6uSQSCBRFANFRFOlA22FiCTRxBbhN3ygAMk1AoGIEEB0VS2je4TCx5E20OvXRN6qTSyKBQFEEEB1FkQ60HSaWQBNXgNv0jQIg0wQEKkYA0VGxhOYdDhNL3kSrUx99ozq5JBIIFEUA0VEU6UDbYWIJNHEFuE3fKAAyTUCgYgQQHRVLaN7hMLHkTbQ69dE3qpNLIoFAUQQQHUWRDrQdJpZAE1eA2/SNAiDTBAQqRgDRUbGE5h0OE0veRKtTH32jOrkkEggURQDRURTpQNthYgk0cQW4Td8oADJNQKBiBBAdFUto3uEwseRNtDr10Teqk0sigUBRBBAdRZEOtB0mlkATV4Db9I0CINMEBCpGANFRsYTmHQ4TS95Eq1MffaM6uSQSCBRFANFRFOlA22FiCTRxBbhN3ygAMk1AoGIEEB0VS2je4TCx5E20OvXRN6qTSyKBQFEEEB1FkQ60HSaWQBNXgNv0jQIg0wQEKkYA0VGxhOYdDhNL3kSrUx99ozq5JBIIFEUA0VEU6UDbYWIJNHEFuE3fKAAyTUCgYgQQHRVLaNZwviEit4nIDSKyUUSSiWWViHxPRG4SkX/J2gjlK0EA0VGJNBIEBAolgOgoFHf5G+sXkWEROSgiYyIyR0T2ikiviMwQkQERGSl/GHhYAAFERwGQaQICFSOA6KhYQvMIR1c0rhORqccEhgqRIyJyj4j8cx4NUEclCCA6KpFGgoBAoQQQHYXiDqMxFRl/FJEPOe7+RUQ+yipHGAksyEtER0GgaQYCFSKA6KhQMvMMRVc79HzH8SLy7rFzHKxy5Ek4/LoQHeHnkAggUDQBREfRxANpz13tYJUjkKQV7Caio2DgNAeBChBAdFQgiZ0KITnbwVmOThEOu15ER9j5w3sIdIMAoqMb1ANpU1c7HhGRSznLEUjGinUT0VEsb1qDQBUIIDpyyOLCnp6eFbNmzRocGRlZMDY21pdDnVTRAQK9vb2j/f39e/bv3z80Pj6+VUR2d6CZWKpEdGTLNONGNn6FlWbcyBU1oiMLzhkzZjx45MiRS1euXDll+fLlxy9evFhmzpyZpUrKdpDAgQMHZNeuXfL000+/u3nz5qNTp0595ODBg1d0sMkqV43oaDO7jBttgutSMcaNXMEjOtrEOXdgYOCFc889d/6GDRumIzTapNjFYjqQrF69+tAzzzzz5vDw8DIRebuL7oTYNKLDnjXGDTuzUpVg3MicDkRHOwgHBgZ+s3r16kVr165tpzhlSkRg3bp1smHDhteHh4c/XSK3QnAF0WHMEuOGEViJzRk32k4OosOKTpdGBwcHV2zZsmW6tSz25SRwySWXHBoaGtrKVospP4gOAy7GDQOsQEwZN9pKFKLDiG1hX1/fa++8804vWypGciU21yXTE088cWx0dPRkDpd6JwrR4Y1KGDf8WQVjybjRVqoQHRZsPT0961atWvXN9evX65M6+VSIwJo1a97duHHjXePj4+yZ+eUV0eHHSRg3PEEFaMa4YU4aosOCTPdkh4aGFp1xxhmWYtgGQGD79u0yODjI2Q7/XCE6PFkxbniCCtCMccOcNESHBVlvb+/hvXv39rG1YqEWhq0ulc6ZM2d0bGxsWhged91LRIdnChg3PEEFaMa4YU4aosOI7OjRozrW8qkigSlTpmhYtf/j05IAoqMlogkDxg1/VsFZMm6YUoboMOESYfAwAgvJnMHDlC1Ehz8uxg1/VsFZMm6YUoboMOFCdBhxhWXO4GHKF6LDHxeiw59VcJaMG6aUITpMuBAdRlxhmTN4mPKF6PDHhejwZxWcJeOGKWWIDhMuRIcRV1jmDB6mfCE6/HEhOvxZBWfJuGFKGaLDhAvRYcQVljmDhylfiA5/XIgOf1bBWTJumFKG6DDhQnQYcYVlzuBhyheiwx8XosOfVXCWjBumlCE6TLgQHUZcYZkzeJjyhejwx4Xo8GcVnCXjhilliA4TLkSHEVdY5gwepnwhOvxxITr8WQVnybhhShmiw4QL0WHEFZY5g4cpX4gOf1x1RcfOnTtl6dKlctttt8lNN900Udvw8LBceOGFtb8//vjjMjAw4N/SMcvbb79dTjrppIl6zBV0uMDu3bvlO9/5jmzatKmt+PJ2T3OhzNrhzbhhygaiw4QL0WHEFZY5g4cpX4gOf1wNRYcKjr/5m7+ZNPnqBFjv5/7NSW0CLbPosMRShC2iowjKtTYQHUbULJMagYVkjugwZQvR4Y+roejYunWrfOQjH5Hly5fLkiVLajWqYJgzZ478/Oc/nxAj+rObb7659u+PPfbYxApGslqiPz/77LNr39Sfe+45ueiiiyZsFyxYUBMxe/fulS984Qty7733ylNPPTVhs3jxYnniiSdk/vz5cu2114q+T0T/vmPHjgmfklDd9i6//PJaXfrRcqeccoo88MADsmvXrkk+Jis327Ztm/Bx3759k1Y6mtU7b968idjdVSFdLbngggtq7SWx66rQ4cOHa/489NBDH+Dlpswtr/WqD8lKRz1/pk2r/1omxg3/XwREh4nVX1Ua716xQwulBIOHKVOIDn9cTUWHTtYqCHSLRSfoG2+8UVasWFETHPo/FREqTnRC1MlaJ9r7779fFi1aJFdffXVt8l64cGHt3/WjWzPuSodOoFdddVVNSKhd+lu92urnuuuuq03WOsm72z1JmMkkrW2rz4ltUm7Pnj0TPn7961+XH/zgBxNCRuNRUaU+vvHGG3L++edPiA43pnr1avsqbl599dWJOGbPnl2LU/3UejWGt956a0JQaRsuzzvuuGPSNk4ihNSvhFciOtSftP+NmKhvjBv+vwiIDhMrRIcdV1glGDxM+UJ0+ONqKjquuOIK+f73v18TGK+//rq8+OKLkyZlXT1wt0oSkXDllVdOEh2uO2nR0ey8QiIEEvFw+umn1z0LopOyih8VAPqtPxEvDz/8cG3Sd8sl7Z966ql1z264Zzo0Zp96VSgkIkuFgRuTW5+KtER0NEpR+kxJuvxLL700KU7Xv3SdjBv+vwiIDhMrRIcdV1glGDxM+UJ0+ONqKjr0W7iKjssuu0yefPLJmsBIJut77rnnAxN6IhL0m7y7RZBsd6ggSIsOd9JMbz9oGLq9kIiOZFUiHZ62607GyUSd+OiWS9rXrZ16gqfZJN+o3rTo0EO47ifZJtLVHHc7qtE2UTPRkmxPJfW72zeIDv+OX8eSMx1GfGyvGIGFZI7oMGUL0eGPq6noSM5Y/M///I+8/PLLtZUB/SS3OxqtdKS3QFwx0kx0pMVDeqWjkejwXelIRI2ufOSx0pH4kxYdzVYfktS4ZVSMJJ9WKx2tVkrc1DNu+P8isNJhYtX+Skejjm9vvrwlkr3otWvXyrp162p70snBuKxeJ99a9Jugfi699FLRPV13UD7zzDNF95QtgwXfWDJlBtHhj6+l6NDzCvrNPVmtePPNNyf6d6MzHe7vgB6gbHamw52gXdFx6NCh2laK/q62WulodaZDcaiAUt+TMxHpsxdJ2ytXrpQ777yztqXU6kxHPdFRr97k3Isr0pJxKX2mwxVGzc50JKsmyXmReodJER3+vwiIDhMrREczXK7o0ANkKhDcbxZ21H8toYPDLbfc8oH63G8qOsgkokPLJM84sLbJ4GEihuh4H9c3ROT/ishIA4ItRUcy+ScHG9PfxBvdXtFJPNkKcLdXkp/rTRfd4nBFR/o2iQqAZ599Vr773e/KDTfc0PQLg+8tE3dLo94tE8vtlXqiQ8cWt153a8WNT/NRb3tFf+6WX79+fe3viTipdyuo0fNSGDds48YUVR56ANdULF7jtrZX0isdOoCMjIzI888/X7vu5Q4WbmfXfdZEYes3ofS1t+TbkabDraPRL2N6L9f9VqXfTPSjv0DpB+Q0KueqfrXRgU0HCB3ozjvvvNqhuORK4N133930WlsyMKjviS/j4+O1k/SPPvpozbcXXnihtuetbbjf8rSsnuTXgUw/7a6wMHiYfrEZN97HdUhEjhORu479Ly0+2ho3TNnoonEyPuS5utnFcMxNM26YkHGmw4SrzSuz9USHez3LvQKXXANLro6pf+nrYonKr3etK71Equ3oaXjd/01OvSdXyZK2dAJPfKg3YTcq12pyTwRU8lwBtx73v90rfRqv64s7oCVM0qKjnSc21ss7g4fptwHR8T6ua0Vk3bEvb/oF7p6U+EB0mLpWWMaMG6Z8ITpMuHIUHdquTv7upKo/S18dS/6uqxruaev0YbDkkJfPEqm247aroiMRMK22RCzfatLPA0iWjHXF5pprrpm4Y9/MF0SHsYcWZ47omMxal9mS55UfPiZAEvHx/3i+T3Eds+iWEB0m4ogOE64cRUdy796dVPUgZKP74So60ofBGl3r0ph0FcN9AqCuBrjbLkncujWRPpCWZtKonM9Kh+tzWnSof+5HV0TSp927IDqMXQJzCEwQGBeRHofHmIg8JSL/B9FR3V6C6DDlFtFhwtVh0dFqpSMtOnxuaqRXQJIH+KRXFxq9fCl9yjvLSkey8nHffffVHmucPEnRzUH6AF0XRAfnm/x+KVjpYKXDr6dU3ArRYUowosOEq8OiQw9DNjvTkV41cLdEkscA65aNnutIJvTkTEf6aYPJeYtWKx1p0eGW81np0GuAySHRRmc63Kt46VUXRIexhxZnjuh4n/VqEbkj1jMdxXW5craE6DDlBdFhwtVh0aGTeDKp6xUwfcyxbqskB0nTD8NpdK3L5+d6rkI/7tMPG71mOn2jJinX6mqqltM69fOjH/1o0g2bRi9lYqXD2CO7Z47oeJ991LdXfLqgO65961vfku3bt3td0fWpu9s2iA5TBhAdJlxtig5jGxPm7spAu3V0s1z6CYbd9MWnbQYPH0oTNoiO93G19ZwOE+3Ajd0HlyWhWLZqyxw+44YpO4gOE64Oi470gU332RtGP0thjugoRRo65QSiw59ssFdmk5XH0047TdasWSPuQ7g0/GYPCztw4EDtzbZ6fitZWdU/9UF+umrre9POH3N3LBEdJu6IDhOuDosOoy+Y50yAwcMEFNHhjyto0aHPzRkcHKxdcXev6ruPO58/f/4HXnXvvg7efS+M9Xq/P+buWDJumLgjOky4EB1GXGGZM3iY8oXo8McVtOhwD6y7Dzp85ZVX6l7xT1Yw3FfdIzr8O0vFLREdxgQHO3gY44zSHNFhSjuiwx9XsONG+mB3WnTUe1bQww8/XHuQoftYdESHf2epuCWiw5jgYAcPY5xRmiM6TGlHdPjjCnbcSN6FpC9xTL9+QVc66j0rqN4BUUSHf2epuCWiw5jgYAcPY5xRmiM6TGlHdPjjCnbcSA63X3/99bVnCDU60+G+Ar7eAVFEh39nqbglosOY4GAHD2OcUZojOkxpR3T44wp23Ei2V0444QR56KGHJr0pWsOv90yg6dOn1w6Vsr3i30EiskR0GJMd7OBhjDNKc0SHKe2IDn9cwY4b6TMd/iHHY8m4Yco1osOEi9srRlxhmTN4mPKF6PDHhejwZxWcJeOGKWWIDhMuRIcRV1jmDB6mfCE6/HEFKzr8Q4zXknHDlHtEhwkXosOIKyxzBg9TvhAd/rgQHf6sgrNk3DClDNFhwoXoMOIKy5zBw5QvRIc/LkSHP6vgLBk3TClDdJhwITqMuMIyZ/Aw5QvR4Y8L0eHPKjhLxg1TyhAdJlyIDiOusMwZPEz5QnT440J0+LMKzpJxw5QyRIcJF6LDiCsscwYPU74QHf64EB3+rIKzZNwwpQzRYcKF6DDiCsucwcOUL0SHPy5Ehz+r4CwZN0wpQ3SYcCE6jLjCMmfwMOUL0eGPC9Hhzyo4S8YNU8oQHRZcvb29h/fu3ds3c+ZMSzFsAyBw4MABmTNnzujY2Ni0ANwtg4uIDs8sMG54ggrQjHHDnDREhwXZwMDAb4aGhhadccYZlmLYBkBg+/btMjg4+Prw8PCnA3C3DC4iOjyzwLjhCSpAM8YNc9IQHRZkPT0961atWvXN9evXH28ph235CaxZs+bdjRs33jU+Pr62/N6WwkNEh2caGDc8QQVoxrhhThqiw4hsYV9f32vvvPNOL1ssRnIlNtcl0hNPPHFsdHT0ZBHZXWJXy+QaosM/G4wb/qyCsWTcaCtViA4rthkzZjw4ODi4YsuWLdOtZbEvJ4FLLrnk0NDQ0NaDBw9eUU4PS+kVosOQFsYNA6xATBk32koUoqMdbLpHu3r16kVr17IS3w6/MpVZt26dbNiwgbMc9qQgOozMGDeMwEpszrjRdnIQHW2imzswMPDCueeeO3/Dhg3T2Wppk2IXi+nS6OrVqw8988wzbw4PDy8Tkbe76E6ITSM67Flj3LAzK1UJxo3M6UB0ZEGoS6ZHjhy5dOXKlVOWL19+/OLFiwUBkoVoZ8vqgLFr1y55+umn3928efPRqVOnPsKWStvMER1tomPcaBNcl4oxbuQKHtGRA86FPT09K2bNmjU4MjKyYGxsrC+HOqmiAwR6e3tH+/uwMQbGAAAgAElEQVT79+zfv39ofHx8K4dGM0FGdGTCJ4wb2fgVVppxI1fUiI5ccVIZBOIhgOiIJ9fWSOkbVmLx2CM64sk1kUIgVwJMLLnirFRl9I1KpTPXYBAdueKkMgjEQ4CJJZ5cWyOlb1iJxWOP6Ign10QKgVwJMLHkirNSldE3KpXOXINBdOSKk8ogEA8BJpZ4cm2NlL5hJRaPPaIjnlwTKQRyJcDEkivOSlVG36hUOnMNBtGRK04qg0A8BJhY4sm1NVL6hpVYPPaIjnhyTaQQyJUAE0uuOCtVGX2jUunMNRhER644qQwC8RBgYokn19ZI6RtWYvHYIzriyTWRQiBXAkwsueKsVGX0jUqlM9dgEB254qQyCMRDgIklnlxbI6VvWInFY4/oiCfXRAqBXAkwseSKs1KV0Tcqlc5cg0F05IqTyiAQDwEmlnhybY2UvmElFo89oiOeXBMpBHIlwMSSK85KVUbfqFQ6cw0G0ZErTiqDQDwEmFjiybU1UvqGlVg89oiOeHJNpBDIlQATS644K1UZfaNS6cw1GERHrjipDALxEGBiiSfX1kjpG1Zi8dgjOuLJNZFCIFcCTCy54qxUZfSNSqUz12AQHbnipDIIxEOAiSWeXFsjpW9YicVjj+iIJ9dECoFcCTCx5IqzUpXRNyqVzlyDQXTkipPKIBAPASaWeHJtjZS+YSUWjz2iI55cEykEciXAxJIrzkpVRt+oVDpzDQbRkStOKoNAPASYWOLJtTVS+oaVWDz2iI54ck2kEMiVABNLrjgrVRl9o1LpzDUYREeuOKkMAvEQYGKJJ9fWSOkbVmLx2CM64sk1kUIgVwJMLLnirFRl9I1KpTPXYBAdueKkMgjEQ4CJJZ5cWyOlb1iJxWOP6Ign10QKgVwJMLHkirNSldE3KpXOXINBdOSKk8ogEA8BJpZ4cm2NlL5hJRaPPaIjnly3FenPReTv2ypJIQhAIFYC/yEi/zvW4Im7KQFEBx2keQcRkSkwgkAdAnybpVtAAAJWAogOK7HI7JlYIku4IVz6hgEWphCAQI0AooOOwEoHfaAtAoiOtrBRCAJRE0B0RJ3+1sEzsbRmFKsFfSPWzBM3BNongOhon10UJZlYokhzW0HSN9rCRiEIRE0A0RF1+lsHz8TSmlGsFvSNWDNP3BBonwCio312UZRkYokizW0FSd9oCxuFIBA1AURH1OlvHTwTS2tGsVrQN2LNPHFDoH0CiI722UVRkoklijS3FSR9oy1sFIJA1AQQHVGnv3XwTCytGcVqQd+INfPEDYH2CSA62mcXRUkmlijS3FaQ9I22sFEIAlETQHREnf7WwTOxtGYUqwV9I9bMEzcE2ieA6GifXRQlmViiSHNbQdI32sJGIQhETQDREXX6WwfPxNKaUawW9I1YM0/cEGifAKKjfXZRlGRiiSLNbQVJ32gLG4UgEDUBREfU6W8dPBNLa0axWtA3Ys08cUOgfQKIjvbZVbLkN0TkNhG5QUQ26muIRWSKiKwSke+JyE0i8i+VjJygrAQQHVZi2EMAAogO+sAkAv0iMiwiB0VkTETmiMheEekVkRkiMiAiIzCDgCNIgQEBCEDAlwCiw5dURHa6onGdiEw9JjBUiBwRkXtE5J8j4kCozQmw0kEPgQAErAQQHVZiEdiryPijiHzIifUvIvJRVjkiyL5/iIgOf1ZYQgACfyWA6KAn1CWgqx16vuN4EXn32DkOVjnoLC4BRAf9AQIQsBJAdFiJRWLvrnawyhFJ0o1hIjqMwDCHAARY6aAPNCaQnO3gLAe9pB4BRAf9AgIQsBJgpcNKLCJ7Xe14REQu5SxHRFn3DxXR4c8KSwhA4K8EEB059ISFPT09K2bNmjU4MjKyYGxsrC+HOqmiAwR6e3tH+/v79+zfv39ofHx8q4js7kAzsVSJ6MiWacaNbPwKK824kStqREcWnDNmzHjwyJEjl65cuXLK8uXLj1+8eLHMnDkzS5WU7SCBAwcOyK5du+Tpp59+d/PmzUenTp36yMGDB6/oYJNVrhrR0WZ2GTfaBNelYowbuYJHdLSJc+7AwMAL55577vwNGzZMR2i0SbGLxXQgWb169aFnnnnmzeHh4WUi8nYX3QmxaUSHPWuMG3ZmpSrBuJE5HYiOdhAODAz8ZvXq1YvWrl3bTnHKlIjAunXrZMOGDa8PDw9/ukRuheAKosOYJcYNI7ASmzNutJ0cRIcVnS6NDg4OrtiyZct0a1nsy0ngkksuOTQ0NLSVrRZTfhAdBlyMGwZYgZgybrSVKESHEdvCvr6+1955551etlSM5EpsrkumJ5544tjo6OjJHC71ThSiwxuVMG74swrGknGjrVQhOizYenp61q1ateqb69ev1yd18qkQgTVr1ry7cePGu8bHx9kz88srosOPkzBueIIK0Ixxw5w0RIcFme7JDg0NLTrjjDMsxbANgMD27dtlcHCQsx3+uUJ0eLJi3PAEFaAZ44Y5aYgOC7Le3t7De/fu7WNrxUItDFtdKp0zZ87o2NjYtDA87rqXiA7PFDBueIIK0Ixxw5w0RIcR2dGjR3Ws5VNFAlOmTNGwav/HpyUBREdLRBMGjBv+rIKzZNwwpQzRYcIlwuBhBBaSOYOHKVuIDn9cjBv+rIKzZNwwpQzRYcKF6DDiCsucwcOUL0SHP66OiI7bb79dbr755gkvduzYIUuWLPH26vDhw3LttdfKihUrTOW8GyiR4e7du+U73/mObNq0SQYGBnL1jHHDhBPRYcKF6DDiCsucwcOUL0SHP67cRYcKjrfeekvuvfdemTZtmuikesEFF8j999/vLSAQHf4JbGbJuGHiiOgw4UJ0GHGFZc7gYcoXosMfV66iIxELp59+ulx44YUTXqgQ0c9NN90kic1DDz1U+1m9VZDE5pRTTpEHHnig9l6ixx57rFZnemVg586dsnXr1prI0Y+ukCR1J2X054n40bouv/zyCVH0+OOPy0UXXVQrq++oeuKJJ2ThwoUfIKjtLF26tPbzpHzS3rx58yZWdm677bZanOlPo7hZ6fDvrB22RHQYAec6eBjbxrzDBBAdJsCIDn9cuY8bySTeaPJ1BYhO5FddddUHJvpkgt6zZ49offv27ZOvf/3r8oMf/KAWmbsd4YqOp556St54443apD88PCw33nij3HHHHbUyV199da2cCgr14aSTTpIFCxbU/lvb0K0N1zcXoQqDpP358+fXhI0Kjeuuu6723/pR0fPqq6/WjUf/vVHc6Xj8U9faknGjNSPHAtFhwsVKhxFXWOYMHqZ8ITr8ceUuOrRpnfB1VWLbtm01TxIBkvxcRYGe8Wi0jVJvxSQRCqeeeqqX6HARuMJEt3wafVR8JKLFtdGfv/TSSxOrI0l93/3ud+WGG26QZGVH43PFTVJHs7hnz57NmQ7//tpJS0SHkW5HBg+jD5h3iACiwwQW0eGPq+PjhisgzjnnnEliJHHT3QbRn9UTIz6iQwWFe4g12bpJi4ak3fSWhyuQ0qIj2YJJfn722WfLww8/XGsvOfDaSnQkIsyNOy2i/FPX2pJxozUjVjpMjCYZd3zwaN81SmYlwOBhIojo8MeV67jhbmm4NzGSFYQrr7yy7kpA2t30Sof79/Qk3UhQuAJAt2eScx/uSke6bLOVjnorIGlx1Ex01FsB0bg50+HfWTtsyUqHEXDmwaOTnd8YS2Hmukzq7uk2ajj5luUejivMSX0qGA8Hs+BGdPjTyjxupJtKn4tIthZ0NUB/f9x/b3SzJZnMtW49K/Hmm29OOtOR3IbRg6bumYp77rmndlZD23EFkHsmJDnToXWrbbJtcujQoVo53fZJHwR1z3Qk5fWGTrK90mqlQ9tqFDfbK/6dtcOWiA4j4MyDB6Kj8R15RIexN3bXHNHhzz/zuFGvqfRzOtztk/SWRnprReurd3vFveWSHFbV2ya6eqIHOFWcJMIh2cZwy9S7feLa63bJypUr5dlnn504u+HG5pZXW/Vh+vTpk54n0milw40pfbOmk+MuX1b8fxFEBNFhwpXDQVK38+s3Az3pfcIJJ0xcP2v0S3/WWWdJf3//xElufea/XjtT++SbSL3rce7A5J50d3+5lUHSrv5c7fbu3Stf+MIXPjAwNCqX5uhendP6tFxyer3e9blXXnll4kpdMkDWG8B02bbewJTHA38YPEy/DYgOf1wdER3+zWPZSQKMGya6iA4Trg6IDl3CvP766yeWRJMH/rhLnbo0mCxJJtfH9CpZsjzZ6JqYu8eqcd5yyy1y2WWX1UJOrqbpMqa759rsOlp6+bPZPq/66y71JqLj9ddfb3h9zl3pcJeEE1GlMaf3q9UH/eSxJcPgYfptQHT440J0+LMKzpJxw5QyRIcJVwdEhzv5N7oLrz4mh68S0eFeH9MJt971OC1X72BXOma3XRUdPucvtI5GV+TSS5nNljbdQ2Wu6EjXnZwLue+++2oPCEqeBWDMX1NzBg8TTUSHPy5Ehz+r4CwZN0wpQ3SYcHVAdDR6AI8e1tJPspqRFh3uoSr3rn4ST7JF4W5luPu66f3g5Ol/KjqaCZVG5dzT6umDo67oSPZnk60g9TfZ9nFFR3oVJb0tpStE6aceGnP5AXMGDxNBRIc/LkSHP6vgLBk3TClDdJhwFSg63Kf+1Vvp8DnJ7cbmXjvTn7urGemVjkaiIy0m2lnpeO655yY9AMi60pGcC0lia3T9zpjXmjmDh4kaosMfF6LDn1VwlowbppQhOky4ChQdrc50uG+GbHRNTB9vnNx7V9GRnOnQsx6J6EhWHpRD8ohhH9GRLueudKTv/2tbyZkOV3Skr8/5nOk4//zzJz1ZkDMdxh6cnzmiw59lrqLD58mf3bgJ1skXyJX52j2iw/8XgdsrJlY148yDR73bK8nrltODSbI1olfH9H8HDx6cuL3iio5G1+N8fq7X4W699Vb50Y9+VHvtsx70bCQ63PrS5dK3R9zbK+vXr689nCd5P0OyHZS+PqerO/pEwla3V9wtI/elUvZ0Ti7B4GEiiOh4H9c3ROT/ishIA4KZxw1TZo6tZCbP0rCWbdce0dEuuajKsdJhTHfhg4f61+itkkbfMW9BANFh6iKIjvdxHRKR40TkrmP/S4uPtsaNRl8a0tuhyVtZk+da6Gpi8jjxZgJe3deHfqXfMquro3pYO6lPv1A0es+L22PSosP94uHW5fMMEa03lGv3jBu2cWOKfnvX7WxTsXiN2xo82sGVfh5Go7dJtlM3ZeoTYPAw9QzGjfdx6StQ1x0bR3Us1VPgKkAS8dHWuOGeV3Kf/JmsRuohc73Nltzkcrca01uVvm9vVQGjQuW8886rCRK9Jef+d/Lae/fWXYLBFR2LFi2qXWN3r80njwNo9JZad7W03hNWy3rtnnHDNm4gOky8sm+v2JrDukgCDB4m2oiOybj2iUjyuN3DxwRIIj7+39Gjisv2aXRIOlnpSIsOt/ZmN8Eavb01fbW90bmQRk8EdUVH+rHj7jN+9EGA9d6x4vof0rV7xg1Tv2Z7xYQrhzMdxvYwL5DAscGjwBZpqmIExkWkx4lpTESeEpH/047o0Hrqvc3V3V7RA+f1ro+nRYfP21ubiY70yque6dInIuvDBeutdCS+J7fN0kKlXlxuXwjp2j2iw/RbjOgw4UJ0GHGFZc7gYcoXKx0dXulwq/d9m2uygpAWHT5vb20kOs4555zaVknyAMKsKx2uUGlUV7OVjrJdu2fcsI0bbK+YeLG9YsMVljWDhylfiI73ca0WkTvyPtPhCod6Zzr0xWl33nln7daZnofwOdPR7O2tvqJD27n77rubrnQ0O9PR6C217pmOkK7dM27Yxg1Eh4kXosMHVyff6OjTfrs2DB4mcoiO93F15PZK+saI+1LG5Fp7cs1cXXGvjyfXyuvdXmn09tZm2yvuNXV9mrA+udi9tq/t+95eaRRXuveFcu2eccM2biA6TLwQHT64EB0+lIK3QXS8n8LSPacj+N4VUACIDlOyONNhwtXFMx3J4bGPfOQjtaXNZvfek29EyYlxjVF/MfTbygMPPFC7g68f9xpuozv12q4u3+pHHyDmHiBrdHc/LTqKfkW9MacT5gweJnKIDn9cbV2Z9a8ey24SYNww0Ud0mHB1WXQkd+j1UJf76PNGr7bX2PRk+/333y9LliyZ9FZY/bfkseh6va3RnXpdRtV2Vci4r5hPv+3WvRKndScvstNHrtd7RkAnX1FvzCmioz1giA5/bogOf1bBWSI6TClDdJhwdVl0uC9pS1YTdLXimmuuqftqexUT7kN8LC9oS8q572lJDqvVOwnvnkJ3RUf6pLnPMwaMOcnNnMHDhBLR4Y8L0eHPKjhLxg1TyhAdJlxdFh3uO1HSomPbtm2TQtEDZKeeeuqkl6OpQb1X3afvxDe7nuc+sKjR3f206Kj3jACtRwVNJ15Rb8wpKx3tAUN0+HNDdPizCs4S0WFKGaLDhKvLoiP9Onr9+3333Vc7o5E8CtmNp9mBTt+nB6owcMVOIjp0e6TR3f206Gj19MFEDPnYGfNlMmfwMOFCdPjjQnT4swrOknHDlDJEhwlXl0VHcrZCz2c0OtORHAjVcxzpRxG7qxTuq+5bnenwER3u3X1XdLhnOtxnBDR7xoAxJ7mZM3iYUCI6/HEhOjxYcevNA1L4JogOYw67Nnikb5G4d/IbvbUx/Uvc7O2OzW6v1BMd+nTCRnf302LH3YZxb9106hX1xpyyvdIeMESHP7eujRv+LnbfEtHR/RwU4AGiwwi5a4NHo0OgRv8xb0KAlQ5T90B0+OPq+rjBVXv/ZFktGTdMxBAdJlxd3l5xVxyMfmPuQYDBwwPS+yaIDn9cXRUdXLX3T1Q7lowbJmqIDhOuLooOo5+Yt0GAwcMEDdHhj6urooOr9v6JaseSccNEDdFhwoXoMOIKy5zBw5QvRIc/rq6KDq7a+yeqHUvGDRM1RIcJF6LDiCsscwYPU74QHf64uio6uGrvn6h2LBk3TNQQHSZciA4jrrDMGTxM+UJ0+OPqqujgqr1/otqxZNwwUUN0mHAhOoy4wjJn8DDlC9Hhj6urosN9YSNX7f2T5mvJuOFLqmaH6DDhQnQYcYVlzuBhyheiwx9XV0UHt978E9WOJeOGiRqiw4QL0WHEFZY5g4cpX4gOf1yIDn9WwVkybphShugw4UJ0GHGFZc7gYcoXosMfV9dEh7+LWLZLgHHDRA7RYcHV29t7eO/evX0zZ860FMM2AAIHDhyQOXPmjI6NjU0LwN0yuIjo8MwC44YnqADNGDfMSUN0WJANDAz8ZmhoaNEZZ5xhKYZtAAS2b98ug4ODrw8PD386AHfL4CKiwzMLjBueoAI0Y9wwJw3RYUHW09OzbtWqVd9cv3798ZZy2JafwJo1a97duHHjXePj42vL720pPER0eKaBccMTVIBmjBvmpCE6jMgW9vX1vfbOO+/0ssViJFdic10iPfHEE8dGR0dPFpHdJXa1TK4hOvyzwbjhzyoYS8aNtlKF6LBimzFjxoODg4MrtmzZMt1aFvtyErjkkksODQ0NbT148OAV5fSwlF4hOgxpYdwwwArElHGjrUQhOtrBpnu0q1evXrR2LSvx7fArU5l169bJhg0bOMthTwqiw8iMccMIrMTmjBttJwfR0Sa6uQMDAy+ce+658zds2DCdrZY2KXaxmC6Nrl69+tAzzzzz5vDw8DIRebuL7oTYNKLDnjXGDTuzUpVg3MicDkRHFoS6ZHrkyJFLV65cOWX58uXHL168WBAgWYh2tqwOGLt27ZKnn3763c2bNx+dOnXqI2yptM0c0dEmOsaNNsF1qRjjRq7gER054FzY09OzYtasWYMjIyMLxsbG+nKokyo6QKC3t3e0v79/z/79+4fGx8e3cmg0E2RERyZ8wriRjV9hpRk3ckWN6MgVJ5VBIB4CiI54cm2NlL5hJRaPPaIjnlwTKQRyJcDEkivOSlVG36hUOnMNBtGRK04qg0A8BJhY4sm1NVL6hpVYPPaIjnhyTaQQyJUAE0uuOCtVGX2jUunMNRhER644qQwC8RBgYokn19ZI6RtWYvHYIzriyTWRQiBXAkwsueKsVGX0jUqlM9dgEB254qQyCMRDgIklnlxbI6VvWInFY4/oiCfXRAqBXAkwseSKs1KV0Tcqlc5cg0F05IqTyiAQDwEmlnhybY2UvmElFo89oiOeXBMpBHIlwMSSK85KVUbfqFQ6cw0G0ZErTiqDQDwEmFjiybU1UvqGlVg89oiOeHJNpBDIlQATS644K1UZfaNS6cw1GERHrjipDALxEGBiiSfX1kjpG1Zi8dgjOuLJNZFCIFcCTCy54qxUZfSNSqUz12AQHbnipDIIxEOAiSWeXFsjpW9YicVjj+iIJ9dECoFcCTCx5IqzUpXRNyqVzlyDQXTkipPKIBAPASaWeHJtjZS+YSUWjz2iI55cEykEciXAxJIrzkpVRt+oVDpzDQbRkStOKoNAPASYWOLJtTVS+oaVWDz2iI54ck2kEMiVABNLrjgrVRl9o1LpzDUYREeuOKkMAvEQYGKJJ9fWSOkbVmLx2CM64sk1kUIgVwJMLLnirFRl9I1KpTPXYBAdueKkMgjEQ4CJJZ5cWyOlb1iJxWOP6Ign10QKgVwJMLHkirNSldE3KpXOXINBdOSKk8ogEA8BJpZ4cm2NlL5hJRaPPaIjnlwTKQRyJcDEkivOSlVG36hUOnMNBtGRK04qg0A8BJhY4sm1NVL6hpVYPPaIjnhyTaQQyJUAE0uuOCtVGX2jUunMNRhER644qQwC8RBgYokn19ZI6RtWYvHYIzriyTWRQiBXAkwsueKsVGX0jUqlM9dgEB254qQyCMRDgIklnlxbI6VvWInFY4/oiCfXRAqBXAkwseSKs1KV0Tcqlc5cg0F05IqTyiAQDwEmlnhybY2UvmElFo89oiOeXBMpBHIlwMSSK85KVUbfqFQ6cw0G0ZErzupV9nMR+fvqhUVEEIBABwn8h4j87w7WT9XhEkB0hJu7QjznG0shmINshL4RZNpwGgJdJYDo6Cr+8jfOxFL+HHXLQ/pGt8jTLgTCJYDoCDd3hXjOxFII5iAboW8EmTachkBXCSA6uoq//I0zsZQ/R93ykL7RLfK0C4FwCSA6ws1dIZ4zsRSCOchG6BtBpg2nIdBVAoiOruIvf+NMLOXPUbc8pG90izztQiBcAoiOcHNXiOdMLIVgDrIR+kaQacNpCHSVAKKjq/jL3zgTS/lz1C0P6RvdIk+7EAiXAKIj3NwV4jkTSyGYg2yEvhFk2nAaAl0lgOjoKv7yN87EUv4cdctD+ka3yNMuBMIlgOgIN3eFeM7EUgjmIBuhbwSZNpyGQFcJIDq6ir/8jTOxlD9H3fKQvtEt8rQLgXAJIDrCzV0hnjOxFII5yEboG0GmDach0FUCiI6u4i9/40ws5c9Rtzykb3SLPO1CIFwCiI5wc1eI50wshWAOshH6RpBpw2kIdJUAoqOr+MvfOBNL+XPULQ/pG90iT7sQCJcAoiPc3HXE82+IyG0icoOIbBSRZGJZJSLfE5GbRORfOtIylYZGANERWsbwFwLdJ4Do6H4OSuVBv4gMi8hBERkTkTkisldEekVkhogMiMhIqTzGmW4RQHR0izztQiBcAoiOcHPXMc91ReM6EZl6TGCoEDkiIveIyD93rFUqDo0AoiO0jOEvBLpPANHR/RyUzgMVGX8UkQ85nv1FRD7KKkfpctVNhxAd3aRP2xAIkwCiI8y8ddxrXe3Q8x3Hi8i7x85xsMrRcexBNYDoCCpdOAuBUhBAdJQiDeVzwl3tYJWjfPkpg0eIjjJkAR8gEBYBREdY+SrU2+RsB2c5CsUeTGOIjmBShaMQKA0BREdpUlE+R3S14xERuZSzHOVLTgk8QnSUIAm4AIHACCA6ckjYwp6enhWzZs0aHBkZWTA2NtaXQ51U0QECvb29o/39/Xv2798/ND4+vlVEdnegmViqRHTEkmnihEB+BBAdWVjOmDHjwSNHjly6cuXKKcuXLz9+8eLFMnPmzCxVUraDBA4cOCC7du2Sp59++t3NmzcfnTp16iMHDx68ooNNVrlqREeVs0tsEOgMAURHm1znDgwMvHDuuefO37Bhw3SERpsUu1hMBcjq1asPPfPMM28ODw8vE5G3u+hOiE0jOkLMGj5DoLsEEB3t8B8YGPjN6tWrF61du7ad4pQpEYF169bJhg0bXh8eHv50idwKwRVERwhZwkcIlIsAosOaD91SGRwcXLFly5bp1rLYl5PAJZdccmhoaGgrWy2m/CA6TLgwhgAE9H1eU5yXekGkNYGFfX19r73zzju9bKm0hhWKhW61nHjiiWOjo6Mnc7jUO2uIDm9UGEIAAscIIDosXaGnp2fdqlWrvrl+/Xp9UiefChFYs2bNuxs3brxrfHycPTO/vCI6/DhhBQEIvE8A0WHpDXqWY2hoaNEZZ5xhKYZtAAS2b98ug4ODnO3wzxWiw58VlhCAwF8JIDosPaG3t/fw3r17+9hasVALw1a3WObMmTM6NjY2LQyPu+4loqPrKcABCARHANFhTNnRo0d1rOVTRQJTpugRJ6n9H5+WBBAdLRFhAAEIpAggOoxdAtFhBBaSOaLDlC1EhwkXxhCAANsr9j7QVHQMDw/LhRdeKDfddJMsWbJkovbk59/85jflySeflBUrVkz6d7sbk0scPnxYrr322lq9+tm6davce++9Mm1avjsFt99+u5x00km1GPP8NOKWbuPxxx+XN954o8a3Ex9Eh4kqosOEC2MIQADRYe8DLVc6dGLWjzsx7ty5U/TnOmkODAzYW21RwhUdrtjJuyFER95Eg64P0RF0+nAeAl0hwPaKEXtL0VFPYCRC5LrrrptYkTjllFNq//3QQw/VXHjsscdqKwha3l2pcL/dJ+IiKXP55ZfXVjT0k17pUNFz2WWXybZt23hZtVwAABvUSURBVCZCPPvss2vCZ/r06ZPaTtejhyqfeOIJ2bFjx6QVGVd0pH1xbdXu5ptvrrV722231V2ZcMtr+3v27JlYIVIGS5cunfBb69ZP8rOkzt27d8sFF1xQe59KEpuKOvfn+j4cjWXhwoUtU81KR0tErgGiw4QLYwhAgJUOex9oKTrSWwX696uvvlq+853vyPz58yfEgU6yyVaB2tx4441yxx13yOuvv95QdLirKG47iYBptr3iipdW9cybN6+uUHBFh/73W2+9VRM9r776qlx11VW1yX3fvn0T/iveW265pSZ+0pN+urwKChUXs2fPlq9//evygx/8oFZG/X7ppZdq7Tz11FOTmKlI05j1z6S+7373u3LDDTdMbGGpgHnxxRe9tmQQHaZfCESHCRfGEIAAosPeB1qKDq3SnZzdlQt3RcIVHa4bzVY6XDt3S6WV6HAn7vQ5j3r1nH766XXPbSRxnXfeeRPiSbdzkjq03IIFC1qeKUlvBzXbHnJ5uKJDVzNUyG3atKm2ZaV/V7Fy1113yebNm9s6N4PoMP1CIDpMuDCGAAQQHfY+4CU6kolSVy50BSOZxNOTq7sNkWxPNBMd7rZB4rqWayY66m33+NRT72xIIjrOOeecDxyYdYWWipyLLrqo5mKybeSiTq8GNeOi5ZLtH1d0pONyV5R0tURXP3Rryd12aZVuREcrQpP+HdFhwoUxBCCA6LD3AS/RkXzrvvLKK+VHP/rRxLfxRt/o3QnT3Z7QVYn0eZB6AqaR6HjzzTcnrQZouO6qhE7MjVZMmomOZisd7s2WRvE2W+lIVoqSQ7fWlY5kWyZJbVrENUs5osP0C4HoMOHCGAIQQHTY+4CX6HAPSboHKd3JVs8ZJNdP02c6kvMRyTd2FQDJIdREdCSHLRutdKxcuVL0im56Ek6Ljkb1NBMd7hmK9JmOV155ZeLchbbV6EyHu+WjZ0KSMx2u6EgOvOrPfM906AFaZaVbL3omhDMd9k7uWQLR4QkKMwhAYIIAt1eMncFLdGidyRaDe6vDFR2LFi2a2AJQ+3q3P3RrQP938ODB2kFI91aHihn9qHBxVx70Z3r75fzzz5dly5ZNCi+5yaGrKe5NkHr1tBIdjW6vpH9eb3vFXXHRmzi6ffKRj3xEli9fPrFVpD9Xf2+99daJ1SI9ZKt+t7q94nJie8XYw/3NER3+rLCEAAT+SgDRYewJ3qLDWC/mJSDA9oopCYgOEy6MIQABRIe9DyA67MyCKYHoMKUK0WHChTEEIIDosPcBRIedWTAlEB2mVCE6TLgwhgAEEB32PoDosDMLpgSiw5QqRIcJF8YQgACiw94HEB12ZsGUQHSYUoXoMOHCGAIQQHTY+0DUoqOTL5bzeSleJ9vXroDoMP1CIDpMuDCGAAQQHfY+gOi49tq2HjHeCjWioxWh0v07oqN0KcEhCJSeAFdmjSnKXXQk7xA57bTTZM2aNbVnU7hvRXWfOdHsbbAaR/LsDffZFI2ep5G0e8IJJ0y86dZ9Voj7KPPEJ/eFdfocj0ZvefV9VodbXp+9obG6TyJN4qn3Nt16zxEx5vID5qx0mAgiOky4MIYABFjpsPeBjogOfT374OBg7QFg7pM69THmyRtXkwlf3wCbPJ00eRus+xj15M2sGlqzJ4fqv2u7119/fV07ffx6IgDSj2LXN7smDzdTn1UAuG+NTb8NNnmDrr6YLfkk719x3xKbiA59eFmzuLUMosPeeXMugejIGSjVQSACAqx0GJPcEdHhvsrdFRD6SPHkte76HpbkPSLJ69uTR6KnRUcSU6N3nGi5U089ddIr5Ju9o0TFxxtvvDEhdnTS148rTNy3vj733HMTj0JvxLfeW2KTt8Zq+WZxIzqMvbYz5oiOznClVghUmQCiw5jdjogO9xXtadGRvK018VO3Th5++OHahO9Ovu5WRbIdcejQoYZvg1XR4bbrig5t69prr53YdtG/6/ZHssKSiI5k+yPxzd0aqvcGXZd1+gxHWrT4xm3MX1NztldMNBEdJlwYQwACbK/Y+0BHRIe70pG8oVZf1Oa+PM11tdUtjnorE7od4b7srZno0O0Rd6Wh0UqHvuNFX8SmqzCNPo1WYVqtdOjKim7dWOK2p3NyCUSHiSCiw4QLYwhAANFh7wMdER3u2YpGZzr0rEZybiLZXklWOtITuNahn1ZnOhqtdLiiI1ktcd90W+9Mh7apIkT/fOCBB+q+Qdc905F+263GVu9MR7O47elrXgLRYSKK6DDhwhgCEEB02PtAR0SHTv7JLZL0W1HrvTE1eeW7u73i3jZJtld0BaLV7ZVNmzaJigF3eyURGtu2bau95XblypXy7LPPSj2xo4Jp165dk27dJIdEtbx+3FsxLnJ3S2j9+vW12zB33HHHhD/p2zj14ransHEJRIeJJqLDhAtjCEAA0WHvAx0THcnkb3eJEnkRQHSYSCI6TLgwhgAEEB32PoDosDMLpgSiw5QqRIcJF8YQgACiw94Hchcddhco0SkCiA4TWUSHCRfGEIAAosPeBxAddmbBlEB0mFKF6DDhwhgCEEB02PsAosPOLJgSiA5TqhAdJlwYQwACiA57H0B02JkFUwLRYUoVosOEC2MIQADRYe8DiI46zFo9rMyOuTslEB0m7ogOEy6MIQABRIe9DyA67MyCKYHoMKUK0WHChTEEIIDosPeBUouO9IpD+hHk7vtQ9F0q+pjx9NNM0y9+a/aK+wMHDsgTTzwhL7zwgjz55JMT74Jp9Mp7O+5iSyA6TLwRHSZcGEMAAogOex8IVnTo6+KTd6Vo2LfccotcdtllNQKNHof+6quvTnqTbPoV9/PmzasJF1fsJK+8d19Z/9Zbb7V8R4s9FfmXQHSYmCI6TLgwhgAEEB32PlAJ0eG+oK3VSoeLKP3it9NPP732fhdXdMyePXuSiHFfYKfvUSnzB9Fhyg6iw4QLYwhAANFh7wPBig6d8N2tkscee6wmGJqJDsXT6hX37ttrk1fe64qItqXvdGn0llk7+s6XQHSYGCM6TLgwhgAEEB32PhCU6Gi0ytBsZcJ9y63PK+7TooOVDnunCrQEoiPQxOE2BLpI4OgUVR4ion/yaU0gCNGRnLVQAXH33XfXDnu+8sor8sYbb0ycwXDPdOibYu+//3455ZRTaisb+rn33nvF5xX3adHBmY7WnagiFowbFUkkYUCgQAKIDiPsUosOjSX9uviXX365dsZi/vz5k7ZKku0VLZNsuyxevFiuvPJK0QOkKjp8X3GfvjXD7RVjrwrTHNERZt7wGgLdJIDoMNIvvegwxoO5Q4AzHabugOgw4cIYAhDgTIe9DyA67MyCKYHoMKUK0WHChTEEIIDosPcBRIedWTAlEB2mVCE6TLgwhgAEEB3GPtDb23t47969fTNnzjSWxLzsBPTpqnPmzBkdGxubVnZfS+IfoqMkicANCAREgDMdlmQNDAz8ZmhoaNEZZ5xhKYZtAAS2b98ug4ODrw8PD386AHfL4CKiowxZwAcIhEUA0WHJV09Pz7pVq1Z9c/369cdbymFbfgJr1qx5d+PGjXeNj4+vLb+3pfAQ0VGKNOAEBIIigOgwpmthX1/fa++8804vWyxGciU2162VE088cWx0dPRkvXVcYlfL5Bqio0zZwBcIhEEA0WHN04wZMx4cHBxcsWXLlunWstiXk8All1xyaGhoaOvBgwevKKeHpfQK0VHKtOAUBEpNANHRTnr0bMfq1asXrV3LSnw7/MpUZt26dbJhwwbOctiTguiwM6MEBGIngOhoswfMHRgYeOHcc8+dv2HDhulstbRJsYvFdEtl9erVh5555pk3h4eHl4nI2110J8SmER0hZg2fIdBdAoiOLPx1q+XIkSOXrly5csry5cuP18eII0CyEO1sWRUau3btkqeffvrdzZs3H506deojbKm0zRzR0TY6CkIgWgKIjhxSv7Cnp2fFrFmzBkdGRhaMjY315VAnVXSAQG9v72h/f/+e/fv3D42Pj2/l0GgmyIiOTPgoDIEoCSA6oky7f9BMLP6sYrOkb8SWceKFQHYCiI7sDCtdAxNLpdObKTj6RiZ8FIZAlAQQHVGm3T9oJhZ/VrFZ0jdiyzjxQiA7AURHdoaVroGJpdLpzRQcfSMTPgpDIEoCiI4o0+4fNBOLP6vYLOkbsWWceCGQnQCiIzvDStfAxFLp9GYKjr6RCR+FIRAlAURHlGn3D5qJxZ9VbJb0jdgyTrwQyE4A0ZGdYaVrYGKpdHozBUffyISPwhCIkgCiI8q0+wfNxOLPKjZL+kZsGSdeCGQngOjIzrDSNTCxVDq9mYKjb2TCR2EIREkA0RFl2v2DZmLxZxWbJX0jtowTLwSyE0B0ZGdY6RqYWCqd3kzB0Tcy4aMwBKIkgOiIMu3+QTOx+LOKzZK+EVvGiRcC2QkgOrIzrHQNTCyVTm+m4OgbmfBRGAJREkB0RJl2/6CZWPxZxWZJ34gt48QLgewEEB3ZGVa6BiaWSqc3U3D0jUz4KAyBKAkgOqJMu3/QTCz+rGKzpG/ElnHihUB2AoiO7AwrXQMTS6XTmyk4+kYmfBSGQJQEEB1Rpt0/aCYWf1axWdI3Yss48UIgOwFER3aGla6BiaXS6c0UHH0jEz4KQyBKAoiOKNPuHzQTiz+r2CzpG7FlnHghkJ0AoiM7w0rXwMRS6fRmCo6+kQkfhSEQJQFER5Rp9w+aicWfVWyW9I3YMk68EMhOANGRnWGla2BiqXR6MwVH38iEj8IQiJIAoiPKtPsHzcTizyo2S/pGbBknXghkJ4DoyM6w0jUwsVQ6vZmCo29kwkdhCERJANERZdr9g2Zi8WcVmyV9I7aMEy8EshNAdGRnWOkamFgqnd5MwdE3MuGjMASiJIDoiDLt/kEzsfizis2SvhFbxokXAtkJIDqyM6x0DUwslU5vpuDoG5nwURgCURJAdESZdv+gmVj8WcVmSd+ILePEC4HsBBAd2RlWugYmlkqnN1Nw9I1M+CgMgSgJIDqiTLt/0Ews/qxis6RvxJZx4oVAdgKIjuwMK10DE0ul05spOPpGJnwUhkCUBBAdUabdP2gmFn9WsVnSN2LLOPFCIDsBREd2hpWugYml0unNFBx9IxM+CkMgSgKIjijT7h80E4s/q9gs6RuxZZx4IZCdAKIjO8NK18DEUun0ZgqOvpEJH4UhECUBREeUafcPmonFn1VslvSN2DJOvBDITgDRkZ1hpWtgYql0ejMFR9/IhI/CEIiSAKIjyrT7B83E4s8qNkv6RmwZJ14IZCeA6MjOsNI1MLFUOr2ZgqNvZMJHYQhESQDREWXa/YNmYvFnFZslfSO2jBMvBLITQHRkZ1jpGphYKp3eTMHRNzLhozAEoiSA6Igy7f5BM7H4s4rNkr4RW8aJFwLZCSA6sjOsdA1MLJVOb6bg6BuZ8FEYAlESQHREmXb/oJlY/FnFZknfiC3jxAuB7AQQHdkZVroGJpZKpzdTcPSNTPgoDIEoCSA6oky7f9BMLP6sYrOkb8SWceKFQHYCiI7sDCtdAxNLpdObKTj6RiZ8FIZAlAQQHVGm3T9oJhZ/VrFZ0jdiyzjxQiA7AURHdoaVquEbInKbiNwgIhtFJJlYVonI90TkJhH5l0pFTDDtEkB0tEuOchCIlwCiI97c1428X0SGReSgiIyJyBwR2SsivSIyQ0QGRGQEZhBwBCkwIAABCPgSQHT4korITlc0rhORqccEhgqRIyJyj4j8c0QcCLU5AVY66CEQgICVAKLDSiwCexUZfxSRDzmx/kVEPsoqRwTZ9w8R0eHPCksIQOCvBBAd9IS6BHS1Q893HC8i7x47x8EqB53FJYDooD9AAAJWAogOK7FI7N3VDlY5Ikm6MUxEhxEY5hCAACsd9IHGBJKzHZzloJfUI4DooF9AAAJWAqx0WIlFZK+rHY+IyKWc5Ygo6/6hIjr8WWEJAQj8lQCig55QIzBfRL44a9asZT09PZ8dHR2dOzo6OuO999477rjjjnuvr6/vYF9f39vj4+O/2r9//wsi8jMReRN2URNAdESdfoKHQFsEEB1tYatOoa/Nnj37msOHDy8666yz3v3iF7/Yf/LJJ8vHP/5xmT17tnzoQx+Sv/zlL7Jv3z75/e9/L6+99pr87Gc/G3n++eePnzZt2uv79u27T0T+rTo4iMRAANFhgIUpBCDASkfMfeCK/v7+2z/3uc8df80115zw5S9/2cziJz/5idx3331/+uUvf/nuyMiIPqn0QXMlFAiZAKIj5OzhOwS6Q4CVju5w71qrn509e/a/LVy4cMGdd945c+nSpZkd2bFjh3z7298+sHv37j379u37moj8KnOlVBACAURHCFnCRwiUiwCio1z56Kg3Kggevv/+++XKK6/MvaEHHnhArrrqKq33MrZccsdbxgoRHWXMCj5BoNwEEB3lzk9u3t04d+7cb/34xz/uP+2003KrNF3Ryy+/LF/5yldG3n777e+LyB0da4iKy0AA0VGGLOADBMIigOgIK19teXvjpz71qetffPHFE+bNm9dWBZZCb731lpx55pl/+u1vf3s3wsNCLjhbREdwKcNhCHSdAKKj6ynorANfmzt37oaXX365vwjBkYSiwuO0007TFY/VbLV0NsFdrB3R0UX4NA2BQAkgOgJNnI/bnxWRV3/xi1+oAPCxz9VGt1o+//nPa52ncLg0V7RlqQzRUZZM4AcEwiGA6AgnVzZPZ8+e/atbb731M504NOrriR4uveWWW369b98+FUB8qkUA0VGtfBINBIoggOgognIX2rhiyZIl39uxY8dMS9s7d+6UH/7wh7Jt2zb5wx/+UHswmD4g7GMf+5icffbZ8tWvflWWLFliqVKWLl16YOfOnfqGWp7jYSJXemNER+lThIMQKB0BREfpUpKDQ/39/X/86U9/Otv3ORy7du2Sq6++WvTPkZGRhh709/fL4sWLZdOmTbU/fT76HI8vfelL+0ZGRj7qY49NMAQQHcGkCkchUBoCiI7SpCI/R7525plnrn/hhRdO8Kny3//93+Xiiy/2MZ1k8+ijj8o//uM/epVbtmzZn1588cU1HCr1whWKEaIjlEzhJwTKQwDRUZ5c5OOJnuX413/918/4PNpcBcfKlSvl0KFD5sanT58umzdv9hIe+sj0f/qnf+Jsh5lyqQsgOkqdHpyDQCkJIDpKmZb2nZr/4Q9/ePfBgwf7WlWhWymf+cxnWpm1/Pdf//rXXlstM2bMGP3zn/+8kLfTtkQaigGiI5RM4ScEykMA0VGeXOTiyde+8pWvbHjqqaf6W9V2+umni563yPrRcyMvvfRSy2rOO++8kR//+Mc8t6MlqWAMEB3BpApHIVAaAoiO0qQiB0dmzZr1+Lp1677a6pqs3lL5h3/4h6aHRn3d0cOlzz77bMtbLXp9du3atT/cv3//hb51Y1dqAoiOUqcH5yBQSgKIjlKmpU2nBgYG/r+f/OQnn251a0VfzKYiIK+Pihx9kVyzj66qfPnLX/7N8PDw/8qrXerpKgFER1fx0zgEgiSA6AgybQ2c/vCHP6yvmG/5jpVPfOIT8l//9V+5hf53f/d38rvf/a5pffpo9IULF/7pz3/+s+nZIbk5SUV5E0B05E2U+iBQfQKIjirl+Ljjjjvy5z//+Th9oFezT19fX+3BX3l9tL3R0dGm1Wl7H/7wh9977733pubVLvV0lQCio6v4aRwCQRJAdASZtsZOHz16VOeC5p8pU6a0MjH/u6Hd/Bs3e0uBHAggOnKASBUQiIwAoqNKCWelo0rZLH0siI7SpwgHIVA6AoiO0qUkg0Oc6cgAj6JWAogOKzHsIQABREeV+gC3V6qUzdLHgugofYpwEAKlI4DoKF1KMjjEczoywKOolQCiw0oMewhAANFRsT7AE0krltASh4PoKHFycA0CJSWA6ChpYtp1i3evtEuOclYCiA4rMewhAAFER9X6AG+ZrVpGSxsPoqO0qcExCJSWAKKjtKlp37GvnXnmmetfeOGFE3yq0NfbX3zxxT6mk2weffRRr9faa6Fly5b96cUXX1wjIv9mbogCZSWA6ChrZvALAuUlgOgob27a96y/v/+PP/3pT2e3egdL0oK+5v7qq68W/XNkZKRhw/pyt8WLF8umTZu8XmevFek7V770pS/tGxkZ+Wj7EVGyhAQQHSVMCi5BoOQEEB0lT1C77l2xZMmS7+3YscP0nhN9++wPf/hD2bZtm/zhD3+oPSpdH3H+sY99TM4++2z56le/2vJtsmmHly5demDnzp3/LCIPthsM5UpJANFRyrTgFARKTQDRUer0ZHBOz3bceuutn2n1mvsMTbQsqm+yveWWW369b9++z7Y0xiA0AoiO0DKGvxDoPgFER/dz0DEPdKJ/9Re/+IWcdtppHWukUcUvv/yyfP7zn9d/PkVEflW4AzTYaQKIjk4Tpn4IVI8AoqN6OZ0U0dfmzp274eWXX+6fN29eYaHqa+xPO+20kbfffns1h0cLw150Q4iOoonTHgTCJ4DoCD+HLSO48VOf+tT1L7744glFCA8VHGeeeeaffvvb394tIne09A6DUAkgOkLNHH5DoHsEEB3dY19oyzfOnTv3Wz/+8Y/7O7nVolsqX/nKV3SF4/sIjkLz243GEB3doE6bEAibAKIj7PyZvP+aiDx8//33SycOl+qh0auuukoduowtFVNeQjVGdISaOfyGQPcIIDq6x74rLX929uzZ/7Zw4cIFd95550zf53g081Sfw/Htb3/7wO7du/fs27dPhQ2HRruS2sIbRXQUjpwGIRA8AURH8ClsL4Ar+vv7b//c5z53/DXXXHPCl7/8ZXMtP/nJT+S+++770y9/+ct3R0ZGbuI5HGaEoRdAdISeQfyHQPEEEB3FMy9Vi1+bPXv2NYcPH1501llnvfvFL36x/+STT5aPf/zjMnv27NqDwfQBYfv27ZPf//738tprr8nPfvazkeeff/74adOmvb5v37772EopVT6LdAbRUSRt2oJANQggOqqRx8xRzBeRL86aNWtZT0/PZ0dHR+eOjo7OeO+994477rjj3uvr6zvY19f39vj4+K/279//goj8TETezNwqFYRMANERcvbwHQLdIYDo6A53WoVA8AQQHcGnkAAgUDgBREfhyGkQAtUggOioRh6JAgJFEkB0FEmbtiBQIQKIjgolk1AgUBABREdBoGkGAlUjgOioWkaJBwKdJ4Do6DxjWoBAJQkgOiqZVoKCQEcJIDo6ipfKIVBdAoiO6uaWyCDQKQKIjk6RpV4IVJwAoqPiCSY8CHSAAKKjA1CpEgIxEEB0xJBlYoRAvgQQHfnypDYIREMA0RFNqgkUArkRQHTkhpKKIBAXAURHXPkmWgjkQQDRkQdF6oBAhAQQHREmnZAhkJEAoiMjQIpDIFYCiI5YM0/cEGifAKKjfXaUhEDUBBAdUaef4CHQFgFER1vYKAQBCCA66AMQgICVQE10/FxE/t5aEnsIQCBqAgdEZGbUBAgeAhCwEviP/x+zpsQ/5eepIAAAAA5lWElmTU0AKgAAAAgAAAAAAAAA0lOTAAAAAElFTkSuQmCC;" vertex="1" parent="1">
          <mxGeometry x="80" y="40" width="541" height="531" as="geometry" />
        </mxCell>
      </root>
    </mxGraphModel>
  </diagram>
</mxfile>
